{"title":"Ice.Age.3.(2009).DVDRip.x264.Dual.Audio.Eng-Rom.AAC.5.1.AMX","uid":7414728,"size":1187516459,"categoryP":"video","categoryS":"movies","magnet":"?xt=urn:btih:658ac3b5182033b822c90e5dd16395c5b5542009&amp;dn=Ice.Age.3.%282009%29.DVDRip.x264.Dual.Audio.Eng-Rom.AAC.5.1.AMX&amp;tr=udp%3A%2F%2Ftracker.openbittorrent.com%3A80&amp;tr=udp%3A%2F%2Fopen.demonii.com%3A1337&amp;tr=udp%3A%2F%2Ftracker.coppersurfer.tk%3A6969&amp;tr=udp%3A%2F%2Fexodus.desync.com%3A6969","seeders":1,"leechers":0,"uploader":"Lawry1494","files":-1,"time":1341479965,"description":"General\nComplete name                            : Ice.Age.3.(2009).DVDRip.x264.Dual.Audio.Eng-Rom.AAC.5.1.AMX\nFormat                                   : MPEG-4\nFormat profile                           : Base Media\nCodec ID                                 : isom\nFile size                                : 1.08 GiB\nDuration                                 : 1h 30mn\nOverall bit rate mode                    : Variable\nOverall bit rate                         : 1 720 Kbps\n\n\nVideo\nID                                       : 1\nFormat                                   : AVC\nBit rate                                 : 1 059 Kbps\nMaximum bit rate                         : 4 464 Kbps\nWidth                                    : 720 pixels\nHeight                                   : 384 pixels\nDisplay aspect ratio                     : 1.85:1\nFrame rate mode                          : Constant\nFrame rate                               : 25.000 fps\nColor space                              : YUV\nChroma subsampling                       : 4:2:0\nBit depth                                : 8 bits\nScan type                                : Progressive\nBits/(Pixel*Frame)                       : 0.153\nStream size                              : 683 MiB (62%)\nWriting library                          : x264 core 125 r2200 999b753\n\nAudio #1\nID                                       : 2\nFormat                                   : AAC\nFormat/Info                              : Advanced Audio Codec\nFormat profile                           : LC\nCodec ID                                 : 40\nDuration                                 : 1h 30mn\nBit rate mode                            : Variable\nBit rate                                 : 329 Kbps\nMaximum bit rate                         : 388 Kbps\nChannel(s)                               : 6 channels\nChannel positions                        : Front: L C R, Side: L R, LFE\nSampling rate                            : 48.0 KHz\nCompression mode                         : Lossy\nStream size                              : 213 MiB (19%)\n\nAudio #2\nID                                       : 3\nFormat                                   : AAC\nFormat/Info                              : Advanced Audio Codec\nFormat profile                           : LC\nCodec ID                                 : 40\nDuration                                 : 1h 30mn\nBit rate mode                            : Variable\nBit rate                                 : 327 Kbps\nMaximum bit rate                         : 386 Kbps\nChannel(s)                               : 6 channels\nChannel positions                        : Front: L C R, Side: L R, LFE\nSampling rate                            : 48.0 KHz\nCompression mode                         : Lossy\nStream size                              : 211 MiB (19%)\n","torrent":{"xt":"urn:btih:658ac3b5182033b822c90e5dd16395c5b5542009","amp;dn":"Ice.Age.3.%282009%29.DVDRip.x264.Dual.Audio.Eng-Rom.AAC.5.1.AMX","amp;tr":["udp%3A%2F%2Ftracker.openbittorrent.com%3A80","udp%3A%2F%2Fopen.demonii.com%3A1337","udp%3A%2F%2Ftracker.coppersurfer.tk%3A6969","udp%3A%2F%2Fexodus.desync.com%3A6969"],"infoHash":"658ac3b5182033b822c90e5dd16395c5b5542009","infoHashBuffer":{"type":"Buffer","data":[101,138,195,181,24,32,51,184,34,201,14,93,209,99,149,197,181,84,32,9]},"announce":[],"urlList":[]}}